<?xml version="1.0" standalone="no"?>
<!DOCTYPE svg PUBLIC "-//W3C//DTD SVG 20010904//EN"
 "http://www.w3.org/TR/2001/REC-SVG-20010904/DTD/svg10.dtd">
<svg version="1.0" xmlns="http://www.w3.org/2000/svg"
 width="108px" height="108px" viewBox="0 0 349.000000 350.000000"
 preserveAspectRatio="xMidYMid meet">

<g transform="translate(0.000000,350.000000) scale(0.100000,-0.100000)"
fill="#000000" stroke="none">

<path d="M0 1750 l0 -1750 1745 0 1745 0 0 1750 0 1750 -1745 0 -1745 0 0
-1750z m1798 494 c29 -20 30 -81 2 -112 -30 -32 -82 -30 -109 4 -12 15 -21 37
-21 49 0 12 9 34 21 49 24 30 72 35 107 10z m62 -390 c57 -118 107 -213 111
-212 8 3 100 105 173 191 34 41 52 54 57 45 3 -7 10 -62 14 -123 4 -60 10
-127 13 -149 l7 -39 93 64 c51 35 101 69 110 74 9 6 20 14 24 20 4 5 10 6 14
2 4 -3 2 -12 -3 -19 -5 -7 -29 -60 -54 -118 -24 -58 -51 -120 -61 -138 -10
-18 -18 -39 -18 -47 0 -12 -15 -15 -67 -16 -104 -2 -146 -1 -192 5 -27 3 -39
1 -35 -6 4 -7 0 -7 -13 1 -11 6 -23 8 -26 5 -3 -3 -15 0 -27 6 -16 8 -20 9
-16 1 5 -8 -33 -11 -136 -10 -79 1 -137 3 -130 6 6 3 12 9 12 15 0 6 -24 8
-65 5 -38 -3 -63 -2 -59 4 3 5 -6 9 -20 9 -14 0 -28 -5 -31 -10 -4 -6 -3 -10
2 -9 4 1 19 -3 33 -9 21 -9 13 -11 -49 -10 -63 0 -78 4 -94 22 -10 11 -16 15
-12 9 10 -21 -5 -15 -26 10 -10 12 -18 17 -19 10 0 -6 -11 -10 -26 -8 -17 2
-24 -2 -20 -11 3 -7 0 -15 -7 -17 -7 -2 0 -4 14 -3 19 1 25 5 22 16 -4 13 -4
13 6 0 6 -8 11 -18 11 -22 0 -5 -49 -8 -110 -8 -76 0 -110 4 -110 11 0 7 -30
81 -66 166 -36 85 -64 156 -62 158 4 5 152 -95 156 -106 2 -5 8 -9 14 -9 5 0
21 -9 35 -20 14 -11 29 -20 33 -20 4 0 11 48 16 108 4 59 9 110 10 115 1 4 2
31 3 60 l1 52 26 -30 c30 -35 135 -154 180 -205 l32 -34 108 217 c60 119 111
217 114 216 3 0 52 -97 110 -215z m390 126 c22 -40 -26 -80 -58 -48 -25 25 -6
68 30 68 9 0 22 -9 28 -20z m-940 -9 c5 -11 7 -27 4 -36 -9 -23 -68 -16 -72 8
-8 41 48 64 68 28z m205 -46 c0 -21 -31 -33 -46 -18 -5 5 -7 17 -3 27 9 24 49
17 49 -9z m518 13 c7 -21 -4 -38 -23 -38 -23 0 -34 16 -26 35 7 18 43 20 49 3z
m-495 -113 c17 -24 32 -48 32 -53 0 -5 -10 -33 -23 -62 l-23 -52 -31 38 c-16
22 -33 45 -37 52 -7 12 32 122 43 122 3 -1 21 -21 39 -45z m488 -12 l21 -58
-36 -48 -36 -48 -22 48 c-13 26 -23 54 -23 62 0 14 60 100 70 101 3 0 14 -26
26 -57z m-861 22 c0 -23 -34 -33 -45 -14 -13 20 1 40 24 37 13 -2 21 -10 21
-23z m1219 9 c8 -21 -1 -34 -24 -34 -22 0 -34 15 -26 35 7 20 42 19 50 -1z
m-1373 -40 c17 -21 0 -49 -31 -49 -31 0 -48 28 -31 49 8 9 21 16 31 16 10 0
23 -7 31 -16z m1543 0 c3 -8 1 -24 -4 -35 -21 -38 -79 -12 -65 31 8 25 60 28
69 4z m-1338 -50 c40 -33 44 -41 44 -79 0 -67 -6 -77 -38 -61 -15 8 -38 25
-50 39 -21 22 -23 31 -17 81 4 31 9 56 12 56 3 0 25 -16 49 -36z m1126 -26 c2
-53 0 -66 -17 -80 -11 -10 -26 -15 -33 -13 -7 3 -11 1 -9 -3 3 -4 -5 -15 -17
-24 -23 -16 -23 -16 -25 30 -1 26 -4 54 -6 63 -4 11 9 25 40 44 25 16 45 33
45 37 0 4 4 8 9 8 5 0 11 -28 13 -62z m-667 -328 c-3 -5 -18 -10 -33 -10 -21
0 -24 2 -12 10 20 13 53 13 45 0z m-262 -7 c-7 -2 -19 -2 -25 0 -7 3 -2 5 12
5 14 0 19 -2 13 -5z m810 -57 c21 -4 44 -3 53 2 19 11 54 4 54 -9 0 -5 -77 -8
-170 -8 -94 1 -168 4 -165 7 3 3 28 7 56 8 27 1 52 3 54 5 5 6 77 3 118 -5z
m-803 -6 c0 -11 -249 -10 -256 1 -3 6 49 9 125 8 72 0 131 -4 131 -9z m386 3
c-2 -2 -46 -6 -97 -8 -57 -2 -84 0 -69 5 26 8 174 11 166 3z m164 3 c0 -11
-19 -15 -25 -6 -3 5 1 10 9 10 9 0 16 -2 16 -4z m80 -62 c0 -8 -4 -12 -10 -9
-5 3 -10 10 -10 16 0 5 5 9 10 9 6 0 10 -7 10 -16z m225 6 c3 -5 -1 -10 -10
-10 -9 0 -13 5 -10 10 3 6 8 10 10 10 2 0 7 -4 10 -10z m-805 -10 c0 -5 -2
-10 -4 -10 -3 0 -8 5 -11 10 -3 6 -1 10 4 10 6 0 11 -4 11 -10z m225 0 c3 -5
1 -10 -4 -10 -6 0 -11 5 -11 10 0 6 2 10 4 10 3 0 8 -4 11 -10z m-488 -70 c1
-11 -2 -20 -7 -20 -6 0 -7 17 -1 38 3 8 7 -1 8 -18z m70 14 c-3 -3 -12 -4 -19
-1 -8 3 -5 6 6 6 11 1 17 -2 13 -5z m473 -4 c-8 -5 -28 -9 -45 -9 -30 2 -30 2
5 9 51 11 57 11 40 0z m63 3 c-7 -2 -21 -2 -30 0 -10 3 -4 5 12 5 17 0 24 -2
18 -5z m-639 -18 c3 -8 1 -15 -4 -15 -6 0 -10 7 -10 15 0 8 2 15 4 15 2 0 6
-7 10 -15z m226 -1 c0 -14 -3 -14 -15 -4 -8 7 -15 14 -15 16 0 2 7 4 15 4 8 0
15 -7 15 -16z m430 -4 c-8 -6 -22 -10 -30 -10 -8 0 -4 6 10 13 27 15 44 12 20
-3z m86 5 c13 -13 13 -15 1 -15 -8 0 -17 7 -21 15 -3 8 -3 15 0 15 3 0 12 -7
20 -15z m-637 -11 c2 -2 -7 -4 -22 -4 -14 0 -29 5 -32 10 -6 10 42 4 54 -6z
m181 6 c0 -5 -4 -10 -9 -10 -6 0 -13 5 -16 10 -3 6 1 10 9 10 9 0 16 -4 16
-10z"/>
<path d="M1156 1481 c-4 -5 3 -7 14 -4 23 6 26 13 6 13 -8 0 -17 -4 -20 -9z"/>
<path d="M1335 1480 c-3 -5 -1 -10 4 -10 6 0 11 5 11 10 0 6 -2 10 -4 10 -3 0
-8 -4 -11 -10z"/>
<path d="M1387 1459 c7 -7 15 -10 18 -7 3 3 -2 9 -12 12 -14 6 -15 5 -6 -5z"/>
<path d="M1528 1463 c-10 -3 -18 -12 -18 -21 0 -11 3 -13 8 -6 4 7 16 13 27
16 11 2 16 6 10 9 -5 3 -18 4 -27 2z"/>
<path d="M1308 1453 c6 -2 18 -2 25 0 6 3 1 5 -13 5 -14 0 -19 -2 -12 -5z"/>
<path d="M1459 1434 c-9 -12 -10 -15 -1 -10 7 4 19 0 28 -8 18 -18 34 -21 34
-6 0 6 -7 10 -15 10 -7 0 -18 7 -23 16 -8 14 -10 13 -23 -2z"/>
<path d="M2008 1429 c-20 -11 -24 -29 -7 -29 5 0 7 5 4 10 -3 6 1 10 9 10 9 0
16 5 16 10 0 12 0 12 -22 -1z"/>
<path d="M1723 1415 c0 -8 4 -15 9 -15 4 0 8 7 8 15 0 8 -4 15 -8 15 -5 0 -9
-7 -9 -15z"/>
<path d="M1780 1410 c0 -5 5 -10 10 -10 6 0 10 5 10 10 0 6 -4 10 -10 10 -5 0
-10 -4 -10 -10z"/>
<path d="M2308 1413 c7 -3 16 -2 19 1 4 3 -2 6 -13 5 -11 0 -14 -3 -6 -6z"/>
<path d="M2310 1680 c0 -5 5 -10 11 -10 5 0 7 5 4 10 -3 6 -8 10 -11 10 -2 0
-4 -4 -4 -10z"/>
</g>
</svg>
